<svg width="215" height="209" viewBox="0 0 215 209" xmlns="http://www.w3.org/2000/svg">
<g clip-path="url(#clip0_1_29)">
<path d="M106.789 208.833C47.6944 208.833 -0.211105 162.271 -0.211105 104.833C-0.211105 47.3953 47.6944 0.832916 106.789 0.832916C165.883 0.832916 213.789 47.3953 213.789 104.833C213.789 162.271 165.883 208.833 106.789 208.833Z" fill="currentColor"/>
<path d="M86.8164 60.7504C86.8164 64.6331 89.8623 62.8443 93.857 62.8443C97.8517 62.8443 101.283 64.64 101.283 60.7504C101.283 56.8608 98.0443 53.72 94.0496 53.72C90.0549 53.7131 86.8164 56.8608 86.8164 60.7504Z" fill="white"/>
<path d="M59.1741 60.7504C59.1741 64.6331 62.22 62.8443 66.2147 62.8443C70.2094 62.8443 73.6405 64.64 73.6405 60.7504C73.6405 56.8608 70.402 53.72 66.4073 53.72C62.4126 53.7131 59.1741 56.8608 59.1741 60.7504Z" fill="white"/>
<path d="M66.0443 78.7982C66.0443 86.3832 72.3716 92.5331 80.1754 92.5331C87.9793 92.5331 94.3066 86.3832 94.3066 78.7982C94.3066 71.2131 87.9793 79.3251 80.1754 79.3251C72.3716 79.3251 66.0443 71.2131 66.0443 78.7982Z" fill="white"/>
</g>
<defs>
<clipPath id="clip0_1_29">
<rect width="214" height="208" fill="white" transform="matrix(-1 0 0 1 214.139 0.944031)"/>
</clipPath>
</defs>
</svg>
